<svg width="19" height="15" viewBox="0 0 19 15" fill="none" xmlns="http://www.w3.org/2000/svg">
<path d="M18.3334 6.87479C18.3341 6.15706 18.1498 5.45019 17.7967 4.8165C17.4436 4.18281 16.9326 3.64177 16.3088 3.24108C15.6849 2.8404 14.9674 2.59237 14.2194 2.51887C13.4714 2.44538 12.716 2.54867 12.0197 2.81964C11.3234 3.09061 10.7076 3.52094 10.2267 4.07268C9.74576 4.62442 9.41446 5.28063 9.26196 5.98344C9.10942 6.68626 9.14042 7.4141 9.35216 8.1028C9.56396 8.7915 9.94996 9.4198 10.4762 9.9325V14.3746C10.4762 14.4812 10.5046 14.586 10.559 14.6791C10.6133 14.7722 10.6917 14.8505 10.7867 14.9066C10.8816 14.9626 10.9901 14.9946 11.1016 14.9994C11.2132 15.0042 11.3241 14.9816 11.424 14.9339L13.75 13.823L16.0761 14.9339C16.1759 14.9816 16.2869 15.0042 16.3985 14.9994C16.51 14.9946 16.6185 14.9626 16.7134 14.9066C16.8084 14.8505 16.8868 14.7722 16.9411 14.6791C16.9955 14.586 17.0239 14.4812 17.0239 14.3746V9.9325C17.8636 9.1167 18.3339 8.0185 18.3334 6.87479ZM13.75 3.74989C14.3975 3.74989 15.0305 3.93316 15.5689 4.27653C16.1072 4.6199 16.5269 5.10794 16.7746 5.67894C17.0224 6.24995 17.0873 6.87826 16.9609 7.48443C16.8346 8.0906 16.5228 8.6474 16.065 9.0844C15.6071 9.5215 15.0238 9.8191 14.3887 9.9397C13.7537 10.0602 13.0954 9.9983 12.4972 9.7618C11.899 9.5253 11.3877 9.1248 11.028 8.6109C10.6682 8.097 10.4762 7.49284 10.4762 6.87479C10.4762 6.04602 10.8212 5.25119 11.4351 4.66515C12.0491 4.07912 12.8818 3.74989 13.75 3.74989ZM14.043 12.5652C13.9521 12.5218 13.8518 12.4992 13.75 12.4992C13.6483 12.4992 13.548 12.5218 13.457 12.5652L11.7858 13.3637V10.827C12.3995 11.1053 13.0705 11.2497 13.75 11.2497C14.4295 11.2497 15.1005 11.1053 15.7143 10.827V13.3637L14.043 12.5652ZM9.16666 11.8746C9.16666 12.0404 9.09769 12.1994 8.97489 12.3166C8.8521 12.4338 8.68556 12.4996 8.51191 12.4996H1.30953C0.962216 12.4996 0.629136 12.3679 0.383546 12.1335C0.137967 11.8991 0 11.5812 0 11.2497V1.24996C0 0.91845 0.137967 0.60052 0.383546 0.36611C0.629136 0.13169 0.962216 0 1.30953 0H15.7143C16.0616 0 16.3947 0.13169 16.6403 0.36611C16.8859 0.60052 17.0239 0.91845 17.0239 1.24996C17.0239 1.41572 16.9549 1.57468 16.8321 1.69189C16.7093 1.8091 16.5427 1.87494 16.3691 1.87494C16.1954 1.87494 16.0289 1.8091 15.9061 1.69189C15.7833 1.57468 15.7143 1.41572 15.7143 1.24996H1.30953V11.2497H8.51191C8.68556 11.2497 8.8521 11.3155 8.97489 11.4327C9.09769 11.5499 9.16666 11.7089 9.16666 11.8746ZM7.85715 7.49978C7.85715 7.6655 7.78816 7.8245 7.66537 7.9417C7.54258 8.0589 7.37604 8.1248 7.20238 8.1248H3.92857C3.75492 8.1248 3.58838 8.0589 3.46559 7.9417C3.3428 7.8245 3.27381 7.6655 3.27381 7.49978C3.27381 7.33402 3.3428 7.17505 3.46559 7.05785C3.58838 6.94064 3.75492 6.87479 3.92857 6.87479H7.20238C7.37604 6.87479 7.54258 6.94064 7.66537 7.05785C7.78816 7.17505 7.85715 7.33402 7.85715 7.49978ZM7.85715 4.99985C7.85715 5.16561 7.78816 5.32457 7.66537 5.44178C7.54258 5.55899 7.37604 5.62483 7.20238 5.62483H3.92857C3.75492 5.62483 3.58838 5.55899 3.46559 5.44178C3.3428 5.32457 3.27381 5.16561 3.27381 4.99985C3.27381 4.8341 3.3428 4.67513 3.46559 4.55792C3.58838 4.44072 3.75492 4.37487 3.92857 4.37487H7.20238C7.37604 4.37487 7.54258 4.44072 7.66537 4.55792C7.78816 4.67513 7.85715 4.8341 7.85715 4.99985Z" fill="white"/>
</svg>
