<svg width="60" height="48" viewBox="0 0 60 48" fill="none" xmlns="http://www.w3.org/2000/svg">
<path d="M7.0818 22.4052L23.556 27.7576C23.7058 27.8017 23.8556 27.8237 24.0053 27.8237C24.6472 27.8237 25.2249 27.4052 25.4388 26.7444C25.6956 25.9294 25.2463 25.0704 24.4546 24.8061L7.9804 19.4536C7.18878 19.1893 6.35437 19.6519 6.09762 20.4668C5.86228 21.2818 6.29018 22.1409 7.0818 22.4052Z" fill="#FF429D"/>
<path d="M3.16648 33.5065L29.5253 42.0749C29.5681 42.0969 29.6323 42.0969 29.6751 42.1189C29.6964 42.1189 29.7178 42.1409 29.7606 42.1409C29.8462 42.163 29.9104 42.163 29.996 42.163C30.0816 42.163 30.1457 42.163 30.2313 42.1409C30.2527 42.1409 30.2741 42.1189 30.2955 42.1189C30.3383 42.1189 30.4025 42.0969 30.4453 42.0749L56.8041 33.5065C58.7083 32.8898 59.9706 31.1056 59.9706 29.0572V4.67381C59.9706 3.176 59.2859 1.78833 58.1092 0.907271C56.9325 0.0262094 55.4562 -0.238109 54.0655 0.224449L29.996 8.0659L5.90506 0.224449C4.51437 -0.216082 3.03811 0.0262094 1.86138 0.907271C0.684644 1.78833 0 3.176 0 4.67381V29.0352C0 31.1057 1.28371 32.8898 3.16648 33.5065ZM55.0283 3.24208C55.4776 3.0879 55.9483 3.176 56.3334 3.46235C56.7185 3.74869 56.9325 4.18922 56.9325 4.67381V29.0352C56.9325 29.696 56.526 30.2686 55.9055 30.4669L31.5364 38.3964V10.8853L55.0283 3.24208ZM3.0809 4.67381C3.0809 4.18922 3.29485 3.74869 3.67996 3.46235C3.93671 3.26411 4.23624 3.176 4.53577 3.176C4.68553 3.176 4.8353 3.19803 4.98507 3.24208L28.4769 10.8853V38.3964L4.10787 30.4669C3.5088 30.2686 3.0809 29.696 3.0809 29.0352V4.67381Z" fill="#FF429D"/>
<path d="M7.0818 13.154L13.8427 15.3567C13.9924 15.4007 14.1422 15.4228 14.292 15.4228C14.9338 15.4228 15.5115 15.0043 15.7254 14.3435C15.9822 13.5285 15.5329 12.6694 14.7412 12.4051L7.9804 10.2025C7.18878 9.93815 6.35437 10.4007 6.09762 11.2157C5.86228 12.0307 6.29018 12.8897 7.0818 13.154Z" fill="#FF429D"/>
<path d="M18.6352 16.8985L23.556 18.5065C23.7058 18.5505 23.8556 18.5726 24.0053 18.5726C24.6472 18.5726 25.2249 18.154 25.4388 17.4933C25.6956 16.6783 25.2463 15.8192 24.4546 15.5549L19.5338 13.947C18.7421 13.6827 17.9077 14.1452 17.651 14.9602C17.3942 15.7752 17.8435 16.6342 18.6352 16.8985Z" fill="#FF429D"/>
<path d="M35.9867 18.5726C36.1365 18.5726 36.2863 18.5505 36.436 18.5065L52.9103 13.154C53.7019 12.8897 54.1298 12.0307 53.8945 11.2157C53.6377 10.4007 52.8033 9.96018 52.0117 10.2025L35.5374 15.5549C34.7458 15.8192 34.3179 16.6783 34.5532 17.4933C34.7672 18.154 35.3449 18.5726 35.9867 18.5726Z" fill="#FF429D"/>
<path d="M52.0116 19.4536L47.9251 20.7752C47.1335 21.0395 46.7056 21.8986 46.9409 22.7135C47.1335 23.3743 47.7325 23.7928 48.3744 23.7928C48.5242 23.7928 48.6739 23.7708 48.8237 23.7268L52.9102 22.4052C53.7018 22.1409 54.1297 21.2818 53.8944 20.4668C53.6376 19.6519 52.8032 19.1893 52.0116 19.4536Z" fill="#FF429D"/>
<path d="M35.9867 27.8237C36.1365 27.8237 36.2863 27.8017 36.436 27.7576L43.1541 25.577C43.9457 25.3127 44.3736 24.4536 44.1383 23.6387C43.8815 22.8237 43.0471 22.3831 42.2555 22.6254L35.5374 24.8061C34.7458 25.0704 34.3179 25.9294 34.5532 26.7444C34.7672 27.4052 35.3449 27.8237 35.9867 27.8237Z" fill="#FF429D"/>
<path d="M59.9278 37.0088C59.671 36.1718 58.8152 35.7092 58.0022 35.9735L31.3439 44.6299C30.4667 44.9163 29.5467 44.9163 28.6695 44.6299L2.01109 35.9735C1.19808 35.7092 0.342275 36.1718 0.085533 37.0088C-0.171208 37.8458 0.27809 38.7268 1.0911 38.9911L27.7495 47.6476C28.4983 47.8899 29.2472 48 30.0174 48C30.7876 48 31.5364 47.8899 32.2853 47.6476L58.9222 38.9911C59.7352 38.7268 60.1845 37.8458 59.9278 37.0088Z" fill="#FF429D"/>
</svg>
