<svg width="59" height="59" viewBox="0 0 59 59" fill="none" xmlns="http://www.w3.org/2000/svg">
<path fill-rule="evenodd" clip-rule="evenodd" d="M7.375 7.375V41.7917H34.8924V39.3333H9.83333V9.83333H43.0208V12.4392H45.4792V7.375H7.375ZM45.4792 19.6667C45.4792 20.3187 45.2202 20.9439 44.7591 21.405C44.2981 21.866 43.6728 22.125 43.0208 22.125C42.3688 22.125 41.7436 21.866 41.2825 21.405C40.8215 20.9439 40.5625 20.3187 40.5625 19.6667C40.5625 19.0147 40.8215 18.3894 41.2825 17.9284C41.7436 17.4673 42.3688 17.2083 43.0208 17.2083C43.6728 17.2083 44.2981 17.4673 44.7591 17.9284C45.2202 18.3894 45.4792 19.0147 45.4792 19.6667ZM47.9375 19.6667C47.9375 20.9706 47.4195 22.2212 46.4974 23.1433C45.5754 24.0653 44.3248 24.5833 43.0208 24.5833C41.7169 24.5833 40.4663 24.0653 39.5442 23.1433C38.6222 22.2212 38.1042 20.9706 38.1042 19.6667C38.1042 18.3627 38.6222 17.1121 39.5442 16.1901C40.4663 15.268 41.7169 14.75 43.0208 14.75C44.3248 14.75 45.5754 15.268 46.4974 16.1901C47.4195 17.1121 47.9375 18.3627 47.9375 19.6667Z" fill="#FFB649"/>
<path fill-rule="evenodd" clip-rule="evenodd" d="M36.9893 26.8327C37.6748 26.1783 38.5859 25.813 39.5337 25.8125H44.5511C46.3506 25.8125 48.026 26.4246 49.3166 27.644C50.5581 28.8166 51.2046 30.3199 51.4689 31.7445C51.8843 33.984 51.4541 36.4313 50.3958 38.6007V48.5521C50.3958 49.3232 50.1059 50.0662 49.5836 50.6335C49.0613 51.2008 48.3448 51.551 47.5763 51.6146C46.8078 51.6782 46.0435 51.4506 45.4351 50.9768C44.8266 50.5031 44.4185 49.8179 44.2918 49.0573L43.6354 45.119L42.979 49.0573C42.8523 49.8179 42.4442 50.5031 41.8357 50.9768C41.2273 51.4506 40.4629 51.6782 39.6944 51.6146C38.9259 51.551 38.2094 51.2008 37.6871 50.6335C37.1648 50.0662 36.8749 49.3232 36.875 48.5521V36.9893C36.3144 37.313 35.6785 37.4834 35.0312 37.4834H28.76C27.782 37.4834 26.8441 37.0949 26.1526 36.4034C25.461 35.7119 25.0725 34.7739 25.0725 33.7959C25.0725 32.818 25.461 31.88 26.1526 31.1885C26.8441 30.4969 27.782 30.1084 28.76 30.1084H33.5538L36.9893 26.8327ZM39.3333 41.1464V48.5521C39.3337 48.706 39.3919 48.8542 39.4963 48.9673C39.6008 49.0804 39.7439 49.1502 39.8973 49.1629C40.0507 49.1756 40.2033 49.1302 40.3249 49.0358C40.4465 48.9413 40.5282 48.8047 40.5539 48.6529L41.8359 40.9632C41.8836 40.6762 42.0316 40.4154 42.2535 40.2273C42.4754 40.0391 42.7569 39.9358 43.0478 39.9356H44.2229C44.5139 39.9358 44.7953 40.0391 45.0173 40.2273C45.2392 40.4154 45.3872 40.6762 45.4349 40.9632L46.7169 48.6529C46.7426 48.8047 46.8243 48.9413 46.9459 49.0358C47.0674 49.1302 47.22 49.1756 47.3735 49.1629C47.5269 49.1502 47.67 49.0804 47.7744 48.9673C47.8789 48.8542 47.937 48.706 47.9375 48.5521V38.3094C47.9374 38.1127 47.9846 37.9188 48.0751 37.744C49.0241 35.9113 49.3694 33.9041 49.0523 32.1931C48.8593 31.1532 48.4082 30.1674 47.6289 29.4312C46.8337 28.6801 45.7791 28.2708 44.5511 28.2708H39.5349C39.219 28.2708 38.9142 28.3925 38.6855 28.6101L34.8948 32.2263C34.6663 32.4446 34.3626 32.5665 34.0467 32.5668H28.76C28.434 32.5668 28.1214 32.6963 27.8909 32.9268C27.6603 33.1573 27.5308 33.4699 27.5308 33.7959C27.5308 34.1219 27.6603 34.4346 27.8909 34.6651C28.1214 34.8956 28.434 35.0251 28.76 35.0251H35.0312C35.3472 35.0248 35.6509 34.9029 35.8793 34.6846L37.256 33.3719C37.4302 33.2058 37.6492 33.0946 37.886 33.0519C38.1229 33.0092 38.367 33.037 38.5882 33.1317C38.8093 33.2265 38.9979 33.384 39.1303 33.5849C39.2628 33.7858 39.3333 34.0212 39.3333 34.2618V41.1464Z" fill="#FFB649"/>
</svg>
